# xmcd
#
# Track frame offsets:
#	150
#	22081
#	34264
#	49827
#	65137
#	83095
#	96411
#	110158
#	130773
#	147241
#	164082
#	177457
#
# Disc length: 2556 seconds
#
# Revision: 0
# Processed by: cddbd v1.5.1PL0 Copyright (c) Steve Scherf et al.
# Submitted via: dBpowerAMP V4.0
#
DISCID=b709fa0c
DTITLE=Türkülerle Türkiye - Manisa
DYEAR=1900
DGENRE=
TTITLE0=Aman aman nalbandim
TTITLE1=Bahcalarda gök balda
TTITLE2=Bir tas attim karakolun camina
TTITLE3=Cattilar ocak tasini
TTITLE4=Cayin öte yüzünde
TTITLE5=Devredip gezersin dari fenayi
TTITLE6=Diken arasinda bir gül (semah)
TTITLE7=Efeler geliyor dört atli
TTITLE8=Koyun ben de ask oduna yanayim
TTITLE9=Sira sira testiler eminem (baygin eminem)
TTITLE10=Aysem geliyor Aysem
TTITLE11=Hey bugday bugdayim
EXTD=
EXTT0=
EXTT1=
EXTT2=
EXTT3=
EXTT4=
EXTT5=
EXTT6=
EXTT7=
EXTT8=
EXTT9=
EXTT10=
EXTT11=
PLAYORDER=
